<?xml version="1.0" encoding="iso-8859-1"?>
<!-- Generator: Adobe Illustrator 19.0.0, SVG Export Plug-In . SVG Version: 6.00 Build 0)  -->
<svg version="1.1" id="Layer_1" xmlns="http://www.w3.org/2000/svg" xmlns:xlink="http://www.w3.org/1999/xlink" x="0px" y="0px"
	 viewBox="0 0 512 512" style="enable-background:new 0 0 512 512;" xml:space="preserve">
<polygon style="fill:#42C8C6;" points="312.264,0 312.264,56.264 244.747,78.769 278.505,0 "/>
<polygon style="fill:#81E3E2;" points="36.571,0 36.571,56.264 278.505,90.022 278.505,0 "/>
<polygon style="fill:#FEDC3D;" points="312.264,56.264 312.264,455.736 278.505,430.935 244.747,243.599 278.505,56.264 "/>
<polygon style="fill:#FFE777;" points="278.505,56.264 278.505,430.935 174.418,354.462 140.659,205.363 174.418,56.264 "/>
<polygon style="fill:#FFF1B1;" points="174.418,56.264 174.418,354.462 36.571,455.736 36.571,56.264 "/>
<path style="fill:#02ACAB;" d="M362.901,286.945V512c62.149,0,112.527-50.379,112.527-112.527S425.05,286.945,362.901,286.945z"/>
<path style="fill:#42C8C6;" d="M362.901,286.945c43.503,0,78.769,50.379,78.769,112.527S406.404,512,362.901,512
	c-62.149,0-112.527-50.379-112.527-112.527S300.752,286.945,362.901,286.945z"/>
<path style="fill:#FFFFFF;" d="M419.165,382.593H379.78v-39.385c0-9.322-7.557-16.879-16.879-16.879s-16.879,7.557-16.879,16.879
	v39.385h-39.385c-9.322,0-16.879,7.557-16.879,16.879c0,9.322,7.557,16.879,16.879,16.879h39.385v39.385
	c0,9.322,7.557,16.879,16.879,16.879s16.879-7.557,16.879-16.879v-39.385h39.385c9.322,0,16.879-7.557,16.879-16.879
	C436.044,390.151,428.487,382.593,419.165,382.593z"/>
<g>
</g>
<g>
</g>
<g>
</g>
<g>
</g>
<g>
</g>
<g>
</g>
<g>
</g>
<g>
</g>
<g>
</g>
<g>
</g>
<g>
</g>
<g>
</g>
<g>
</g>
<g>
</g>
<g>
</g>
</svg>
