<?xml version="1.0" encoding="iso-8859-1"?>
<!-- Generator: Adobe Illustrator 19.0.0, SVG Export Plug-In . SVG Version: 6.00 Build 0)  -->
<svg version="1.1" id="Layer_1" xmlns="http://www.w3.org/2000/svg" xmlns:xlink="http://www.w3.org/1999/xlink" x="0px" y="0px"
	 viewBox="0 0 512 512" style="enable-background:new 0 0 512 512;" xml:space="preserve">
<g>
	<path style="fill:#EAC36E;" d="M136.568,468.628V512h-34.316l6.041-9.626c3.875-6.164,2.825-14.405-2.814-19.017
		c-4.255-3.495-6.979-8.788-6.979-14.729"/>
	<path style="fill:#EAC36E;" d="M413.501,468.628c0,5.941-2.725,11.234-6.979,14.729c-5.639,4.612-6.689,12.853-2.814,19.017
		l6.041,9.626h-34.316v-43.372"/>
</g>
<rect x="110.273" y="31.983" style="fill:#FCD577;" width="291.455" height="405.781"/>
<g>
	<rect x="110.273" y="34.427" style="fill:#EAC36E;" width="291.455" height="18.984"/>
	<rect x="110.273" y="420.052" style="fill:#EAC36E;" width="291.455" height="18.984"/>
</g>
<g>
	<path style="fill:#FCD577;" d="M81.034,447.498v22.244h349.932v-22.244c-10.428,0-18.881-8.453-18.881-18.881H99.916
		C99.916,439.045,91.463,447.498,81.034,447.498z"/>
	<path style="fill:#FCD577;" d="M430.963,0v22.244c-10.419,0-18.872,8.453-18.872,18.883H99.91c0-10.43-8.453-18.883-18.872-18.883
		V0H430.963z"/>
</g>
<g>
	<path style="fill:#4E6B7C;" d="M368.227,175.688V98.179c-24.567-14.227-65.672-23.551-112.227-23.551s-87.66,9.324-112.227,23.551
		v77.509H368.227z"/>
	<rect x="143.774" y="316.39" style="fill:#4E6B7C;" width="224.454" height="78.726"/>
	<rect x="143.774" y="205.839" style="fill:#4E6B7C;" width="224.454" height="80.401"/>
</g>
<rect x="174.762" y="113.712" style="fill:#4EBFED;" width="26.8" height="61.976"/>
<rect x="174.762" y="113.712" style="fill:#45B8DB;" width="9.589" height="61.976"/>
<rect x="201.562" y="113.712" style="fill:#81CC96;" width="26.8" height="61.976"/>
<rect x="228.363" y="113.712" style="fill:#FF6F52;" width="26.8" height="61.976"/>
<rect x="255.163" y="113.712" style="fill:#81CC96;" width="26.8" height="61.976"/>
<rect x="314.347" y="113.712" style="fill:#FF6F52;" width="26.8" height="61.976"/>
<rect x="312.393" y="236.547" style="fill:#81CC96;" width="26.8" height="49.692"/>
<g>
	<rect x="285.593" y="236.547" style="fill:#FF6F52;" width="26.8" height="49.692"/>
	<rect x="231.992" y="236.547" style="fill:#FF6F52;" width="26.8" height="49.692"/>
</g>
<g>
	<rect x="172.808" y="236.547" style="fill:#4EBFED;" width="26.8" height="49.692"/>
	<rect x="309.601" y="345.424" style="fill:#4EBFED;" width="26.8" height="49.692"/>
</g>
<g>
	<rect x="309.601" y="345.424" style="fill:#45B8DB;" width="10.591" height="49.692"/>
	<rect x="172.808" y="236.547" style="fill:#45B8DB;" width="10.591" height="49.692"/>
</g>
<rect x="282.801" y="345.424" style="fill:#81CC96;" width="26.8" height="49.692"/>
<rect x="256.001" y="345.424" style="fill:#FF6F52;" width="26.8" height="49.692"/>
<g>
	<rect x="282.801" y="345.424" style="fill:#71BC82;" width="10.591" height="49.692"/>
	<rect x="312.393" y="236.547" style="fill:#71BC82;" width="10.591" height="49.692"/>
</g>
<rect x="256.001" y="345.424" style="fill:#EF5E45;" width="10.591" height="49.692"/>
<rect x="202.4" y="345.424" style="fill:#81CC96;" width="26.8" height="49.692"/>
<rect x="175.599" y="345.424" style="fill:#FF6F52;" width="26.8" height="49.692"/>
<rect x="229.2" y="345.424" style="fill:#81CC96;" width="26.8" height="49.692"/>
<path style="fill:#EAC36E;" d="M430.963,22.244c-10.419,0-18.872,8.453-18.872,18.883H99.91c0-10.43-8.453-18.883-18.872-18.883
	C81.038,22.244,430.963,22.244,430.963,22.244z"/>
<g>
	<rect x="229.2" y="345.424" style="fill:#71BC82;" width="10.591" height="49.692"/>
	<rect x="202.4" y="345.424" style="fill:#71BC82;" width="10.591" height="49.692"/>
</g>
<g>
	<rect x="175.599" y="345.424" style="fill:#EF5E45;" width="10.591" height="49.692"/>
	<rect x="231.992" y="236.547" style="fill:#EF5E45;" width="10.591" height="49.692"/>
	<rect x="285.593" y="236.547" style="fill:#EF5E45;" width="10.591" height="49.692"/>
</g>
<g>
	<rect x="201.562" y="113.712" style="fill:#71BC82;" width="9.589" height="61.976"/>
	<rect x="255.163" y="113.712" style="fill:#71BC82;" width="9.589" height="61.976"/>
</g>
<g>
	<rect x="228.363" y="113.712" style="fill:#EF5E45;" width="9.589" height="61.976"/>
	<rect x="314.347" y="113.712" style="fill:#EF5E45;" width="9.589" height="61.976"/>
</g>
<g>
</g>
<g>
</g>
<g>
</g>
<g>
</g>
<g>
</g>
<g>
</g>
<g>
</g>
<g>
</g>
<g>
</g>
<g>
</g>
<g>
</g>
<g>
</g>
<g>
</g>
<g>
</g>
<g>
</g>
</svg>
