<?xml version="1.0" encoding="iso-8859-1"?>
<!-- Generator: Adobe Illustrator 19.0.0, SVG Export Plug-In . SVG Version: 6.00 Build 0)  -->
<svg version="1.1" id="Capa_1" xmlns="http://www.w3.org/2000/svg" xmlns:xlink="http://www.w3.org/1999/xlink" x="0px" y="0px"
	 viewBox="0 0 512.001 512.001" style="enable-background:new 0 0 512.001 512.001;" xml:space="preserve">
<path style="fill:#CBE8EF;" d="M439.042,394.736l-27.005-27.005c-3.018-3.017-3.018-7.91,0-10.927c3.017-3.017,7.91-3.017,10.927,0
	l27.005,27.005c3.018,3.017,3.018,7.91,0,10.927C446.952,397.753,442.06,397.753,439.042,394.736z"/>
<path style="fill:#EADCD6;" d="M16.083,405.819c-1.744,34.604,23.068,62.973,53.847,62.973h325.286V349.67H68.888
	C40.741,349.67,17.659,374.558,16.083,405.819z"/>
<path style="fill:#DDCDC7;" d="M44.425,405.819c1.576-31.261,24.657-56.149,52.805-56.149H68.889
	c-28.148,0-51.23,24.888-52.805,56.149c-1.744,34.604,23.068,62.974,53.847,62.974h28.342
	C67.493,468.792,42.681,440.423,44.425,405.819z"/>
<path style="fill:#5DA3E2;" d="M75.648,357.593H409.09c4.729,0,8.563-3.834,8.563-8.563v-6.329c0-4.935-4-8.935-8.935-8.935H76.857
	c-41.547,0-76.248,32.991-76.849,74.533c-0.612,42.221,33.557,76.764,75.64,76.764h333.069c4.935,0,8.935-4,8.935-8.935v-6.105
	c0-4.853-3.934-8.786-8.786-8.786H76.669c-30.157,0-54.467-24.683-52.759-54.791C25.454,379.247,48.07,357.593,75.648,357.593z"/>
<g>
	<path style="fill:#C9BCB8;" d="M362.654,391.132H95.007c-4.267,0-7.727-3.459-7.727-7.727s3.459-7.727,7.727-7.727h267.646
		c4.267,0,7.727,3.459,7.727,7.727S366.921,391.132,362.654,391.132z"/>
	<path style="fill:#C9BCB8;" d="M362.654,417.142H95.007c-4.267,0-7.727-3.459-7.727-7.727s3.459-7.727,7.727-7.727h267.646
		c4.267,0,7.727,3.459,7.727,7.727S366.921,417.142,362.654,417.142z"/>
	<path style="fill:#C9BCB8;" d="M362.654,443.152H95.007c-4.267,0-7.727-3.459-7.727-7.727c0-4.267,3.459-7.727,7.727-7.727h267.646
		c4.267,0,7.727,3.459,7.727,7.727S366.921,443.152,362.654,443.152z"/>
</g>
<path style="fill:#EADCD6;" d="M16.083,253.413c-1.744,35.089,23.068,63.855,53.847,63.855h325.286v-120.79H68.888
	C40.741,196.478,17.659,221.714,16.083,253.413z"/>
<path style="fill:#DDCDC7;" d="M44.425,253.413c1.576-31.699,24.657-56.935,52.805-56.935H68.889
	c-28.148,0-51.23,25.236-52.805,56.935c-1.744,35.089,23.068,63.855,53.847,63.855h28.342
	C67.493,317.268,42.681,288.501,44.425,253.413z"/>
<path style="fill:#FFD261;" d="M75.648,204.511H409.09c4.729,0,8.563-3.887,8.563-8.682v-6.417c0-5.004-4-9.06-8.935-9.06H76.857
	c-41.547,0-76.248,33.452-76.849,75.576c-0.612,42.812,33.557,77.839,75.64,77.839h333.069c4.935,0,8.935-4.056,8.935-9.06v-6.191
	c0-4.92-3.934-8.909-8.786-8.909H76.669c-30.157,0-54.467-25.029-52.759-55.558C25.454,226.469,48.07,204.511,75.648,204.511z"/>
<g>
	<path style="fill:#C9BCB8;" d="M362.654,238.52H95.007c-4.267,0-7.727-3.508-7.727-7.835s3.459-7.835,7.727-7.835h267.646
		c4.267,0,7.727,3.508,7.727,7.835S366.921,238.52,362.654,238.52z"/>
	<path style="fill:#C9BCB8;" d="M362.654,264.894H95.007c-4.267,0-7.727-3.508-7.727-7.835c0-4.327,3.459-7.835,7.727-7.835h267.646
		c4.267,0,7.727,3.508,7.727,7.835C370.38,261.386,366.921,264.894,362.654,264.894z"/>
	<path style="fill:#C9BCB8;" d="M362.654,291.269H95.007c-4.267,0-7.727-3.508-7.727-7.835s3.459-7.835,7.727-7.835h267.646
		c4.267,0,7.727,3.508,7.727,7.835S366.921,291.269,362.654,291.269z"/>
</g>
<path style="fill:#EADCD6;" d="M16.083,99.998c-1.744,35.089,23.068,63.855,53.847,63.855h325.286V43.063H68.888
	C40.741,43.063,17.659,68.299,16.083,99.998z"/>
<path style="fill:#DDCDC7;" d="M44.425,99.998c1.576-31.699,24.657-56.935,52.805-56.935H68.889
	c-28.148,0-51.23,25.236-52.805,56.935c-1.744,35.088,23.068,63.855,53.847,63.855h28.342
	C67.493,163.853,42.681,135.086,44.425,99.998z"/>
<path style="fill:#C64757;" d="M75.648,51.096H409.09c4.729,0,8.563-3.887,8.563-8.682v-6.417c0-5.004-4-9.06-8.935-9.06H76.857
	c-41.547,0-76.248,33.452-76.849,75.576c-0.612,42.812,33.557,77.839,75.64,77.839h333.069c4.935,0,8.935-4.056,8.935-9.06v-6.191
	c0-4.92-3.934-8.909-8.786-8.909H76.669c-30.157,0-54.467-25.029-52.759-55.558C25.454,73.053,48.07,51.096,75.648,51.096z"/>
<g>
	<path style="fill:#C9BCB8;" d="M362.654,85.105H95.007c-4.267,0-7.727-3.508-7.727-7.835s3.459-7.835,7.727-7.835h267.646
		c4.267,0,7.727,3.508,7.727,7.835S366.921,85.105,362.654,85.105z"/>
	<path style="fill:#C9BCB8;" d="M362.654,111.479H95.007c-4.267,0-7.727-3.508-7.727-7.835s3.459-7.835,7.727-7.835h267.646
		c4.267,0,7.727,3.508,7.727,7.835S366.921,111.479,362.654,111.479z"/>
	<path style="fill:#C9BCB8;" d="M362.654,137.854H95.007c-4.267,0-7.727-3.508-7.727-7.835c0-4.327,3.459-7.835,7.727-7.835h267.646
		c4.267,0,7.727,3.508,7.727,7.835S366.921,137.854,362.654,137.854z"/>
</g>
<path style="fill:#E1F3F9;" d="M420.981,365.747c-47.65,47.65-125.184,47.65-172.834,0c-47.651-47.651-47.651-125.184,0-172.834
	s125.184-47.65,172.834,0C468.631,240.564,468.631,318.097,420.981,365.747z"/>
<path style="fill:#CBE8EF;" d="M268.752,365.747c-47.651-47.651-47.651-125.184-0.001-172.834
	c21.208-21.208,48.336-32.968,76.114-35.298c-34.633-2.904-70.277,8.856-96.719,35.298c-47.65,47.65-47.65,125.184,0.001,172.834
	c26.442,26.442,62.086,38.202,96.719,35.298C317.088,398.715,289.96,386.955,268.752,365.747z"/>
<path style="fill:#C64757;" d="M442.647,381.466l-5.947,5.947c-4.361,4.361-4.362,11.498,0,15.86l50.223,50.223
	c4.361,4.361,11.498,4.361,15.86,0l5.947-5.947c4.361-4.361,4.361-11.498,0-15.86l-50.223-50.223
	C454.145,377.104,447.008,377.104,442.647,381.466z"/>
<g>
	<path style="fill:#B2364B;" d="M457.304,403.273c-4.361-4.361-4.361-11.498,0-15.86l3.575-3.575l-2.373-2.373
		c-4.362-4.361-11.498-4.361-15.86,0l-5.947,5.948c-4.361,4.361-4.361,11.498,0,15.86l50.222,50.222
		c4.361,4.361,11.498,4.361,15.86,0l2.373-2.373L457.304,403.273z"/>
	<path style="fill:#B2364B;" d="M461.811,428.384l25.111,25.111c4.361,4.361,11.498,4.361,15.86,0l5.947-5.947
		c4.361-4.361,4.361-11.498,0-15.86l-25.111-25.111L461.811,428.384z"/>
</g>
<path style="fill:#A32F48;" d="M505.154,451.123l-33.041-33.041l-10.302,10.302l25.111,25.111c4.356,4.357,11.494,4.367,15.86,0
	L505.154,451.123z"/>
<path style="fill:#B5E3EA;" d="M265.174,209.94c-38.262,38.262-38.262,100.518,0,138.78s100.518,38.262,138.779,0
	s38.262-100.518,0-138.779C365.691,171.679,303.435,171.679,265.174,209.94z"/>
<path style="fill:#90D8E0;" d="M285.779,348.72c-38.262-38.262-38.262-100.518,0-138.78c16.512-16.512,37.495-25.881,59.087-28.141
	c-28.441-2.977-57.943,6.392-79.692,28.141c-38.261,38.261-38.261,100.518,0,138.78c21.749,21.749,51.251,31.118,79.692,28.141
	C323.274,374.601,302.291,365.232,285.779,348.72z"/>
<path style="fill:#4887CC;" d="M101.262,461.237H76.669c-30.157,0-54.467-24.683-52.759-54.791
	c1.544-27.199,24.159-48.853,51.738-48.853h25.613v-23.826H76.857c-41.547,0-76.248,32.991-76.849,74.533
	c-0.612,42.221,33.557,76.764,75.64,76.764h25.613L101.262,461.237L101.262,461.237z"/>
<path style="fill:#2C75B7;" d="M20.613,408.299c0.602-41.542,35.303-74.533,76.849-74.533H76.857
	c-41.546,0-76.248,32.991-76.849,74.533c-0.612,42.221,33.557,76.764,75.64,76.764h20.605
	C54.17,485.063,20.001,450.521,20.613,408.299z"/>
<path style="fill:#F8BF00;" d="M101.262,309.607H76.669c-30.157,0-54.467-25.029-52.759-55.558
	c1.544-27.58,24.159-49.537,51.738-49.537h25.613v-24.16H76.857c-41.547,0-76.248,33.452-76.849,75.576
	c-0.612,42.812,33.557,77.839,75.64,77.839h25.613L101.262,309.607L101.262,309.607z"/>
<path style="fill:#EFA603;" d="M20.613,255.928c0.602-42.124,35.303-75.576,76.849-75.576H76.857
	c-41.546,0-76.248,33.452-76.849,75.576c-0.612,42.812,33.557,77.839,75.64,77.839h20.605
	C54.17,333.767,20.001,298.74,20.613,255.928z"/>
<path style="fill:#B2364B;" d="M101.262,156.192H76.669c-30.157,0-54.467-25.029-52.759-55.558
	c1.544-27.58,24.159-49.537,51.738-49.537h25.613v-24.16H76.857c-41.547,0-76.248,33.452-76.849,75.576
	c-0.612,42.812,33.557,77.839,75.64,77.839h25.613L101.262,156.192L101.262,156.192z"/>
<path style="fill:#A32F48;" d="M20.613,102.513c0.602-42.124,35.303-75.576,76.849-75.576H76.857
	c-41.546,0-76.248,33.452-76.849,75.576c-0.612,42.812,33.557,77.839,75.64,77.839h20.605
	C54.17,180.352,20.001,145.325,20.613,102.513z"/>
<g>
</g>
<g>
</g>
<g>
</g>
<g>
</g>
<g>
</g>
<g>
</g>
<g>
</g>
<g>
</g>
<g>
</g>
<g>
</g>
<g>
</g>
<g>
</g>
<g>
</g>
<g>
</g>
<g>
</g>
</svg>
