<?xml version="1.0" encoding="iso-8859-1"?>
<!-- Generator: Adobe Illustrator 19.0.0, SVG Export Plug-In . SVG Version: 6.00 Build 0)  -->
<svg version="1.1" id="Layer_1" xmlns="http://www.w3.org/2000/svg" xmlns:xlink="http://www.w3.org/1999/xlink" x="0px" y="0px"
	 viewBox="0 0 511.999 511.999" style="enable-background:new 0 0 511.999 511.999;" xml:space="preserve">
<rect x="113.732" y="333.561" transform="matrix(0.7071 -0.7071 0.7071 0.7071 -200.477 216.8856)" style="fill:#DCDCDC;" width="95.668" height="33.757"/>
<path style="fill:#42C8C6;" d="M455.969,326.571c-74.706,74.706-195.831,74.706-270.538,0l116.283-154.254L455.968,56.034
	C530.676,130.74,530.676,251.863,455.969,326.571z"/>
<path style="fill:#81E3E2;" d="M455.969,56.033L185.432,326.571c-74.706-74.706-74.706-195.831,0-270.538
	S381.262-18.674,455.969,56.033z"/>
<path style="fill:#D5F6F5;" d="M322.235,39.4v303.795c41.33-0.405,78.734-17.329,105.886-44.481
	c27.49-27.49,44.492-65.467,44.492-107.416C472.613,107.917,405.425,40.222,322.235,39.4z"/>
<path style="fill:#FFFFFF;" d="M322.235,39.4c64.544,1.058,116.621,68.651,116.621,151.898s-52.077,150.84-116.621,151.897
	c-0.506,0.011-1.024,0.011-1.53,0.011c-83.899,0-151.909-68.01-151.909-151.909c0-41.949,17.003-79.927,44.492-107.416
	s65.467-44.492,107.416-44.492C321.211,39.389,321.729,39.389,322.235,39.4z"/>
<polygon style="fill:#737373;" points="166.494,393.243 142.624,417.113 94.883,401.2 150.58,377.33 "/>
<path style="fill:#FE834D;" d="M126.71,401.2L6.564,489.519l15.913,15.913c8.752,8.752,23.074,8.752,31.827,0l88.32-88.32
	L126.71,401.2z"/>
<polygon style="fill:#969696;" points="150.58,377.33 126.71,401.2 94.883,401.2 94.883,369.373 118.754,345.502 "/>
<path style="fill:#FEA680;" d="M126.71,401.2l-88.32,88.32c-8.752,8.752-23.074,8.752-31.827,0c-8.752-8.752-8.752-23.074,0-31.827
	l88.32-88.32L126.71,401.2z"/>
<g>
</g>
<g>
</g>
<g>
</g>
<g>
</g>
<g>
</g>
<g>
</g>
<g>
</g>
<g>
</g>
<g>
</g>
<g>
</g>
<g>
</g>
<g>
</g>
<g>
</g>
<g>
</g>
<g>
</g>
</svg>
